<svg xmlns="http://www.w3.org/2000/svg" viewBox="0 0 1920 1080">
  <defs>
    <linearGradient id="sky" x1="0%" y1="0%" x2="0%" y2="100%">
      <stop offset="0%" style="stop-color:#1e3a5f"/>
      <stop offset="100%" style="stop-color:#3b82f6"/>
    </linearGradient>
    <linearGradient id="building" x1="0%" y1="0%" x2="0%" y2="100%">
      <stop offset="0%" style="stop-color:#374151"/>
      <stop offset="100%" style="stop-color:#1f2937"/>
    </linearGradient>
  </defs>
  <rect width="1920" height="1080" fill="url(#sky)"/>
  <!-- Ground -->
  <rect x="0" y="700" width="1920" height="380" fill="#111827"/>
  <!-- Warehouse Building -->
  <rect x="200" y="300" width="800" height="400" fill="url(#building)" rx="8"/>
  <rect x="250" y="350" width="150" height="100" fill="#60a5fa" opacity="0.3"/>
  <rect x="450" y="350" width="150" height="100" fill="#60a5fa" opacity="0.3"/>
  <rect x="650" y="350" width="150" height="100" fill="#60a5fa" opacity="0.3"/>
  <rect x="250" y="500" width="700" height="200" fill="#1f2937"/>
  <rect x="500" y="520" width="200" height="180" fill="#fbbf24"/>
  <!-- Delivery Truck -->
  <rect x="1200" y="500" width="400" height="200" fill="#4f46e5" rx="8"/>
  <rect x="1150" y="550" width="100" height="150" fill="#6366f1" rx="4"/>
  <circle cx="1280" cy="720" r="40" fill="#374151"/>
  <circle cx="1280" cy="720" r="25" fill="#6b7280"/>
  <circle cx="1520" cy="720" r="40" fill="#374151"/>
  <circle cx="1520" cy="720" r="25" fill="#6b7280"/>
  <!-- DailyFX Delivery Logo on truck -->
  <text x="1400" y="620" font-family="Arial,sans-serif" font-size="48" font-weight="bold" fill="white" text-anchor="middle">DailyFX Delivery</text>
  <!-- Stars -->
  <circle cx="100" cy="100" r="2" fill="white"/>
  <circle cx="300" cy="150" r="2" fill="white"/>
  <circle cx="500" cy="80" r="2" fill="white"/>
  <circle cx="1500" cy="120" r="2" fill="white"/>
  <circle cx="1700" cy="200" r="2" fill="white"/>
</svg>
