<svg xmlns="http://www.w3.org/2000/svg" viewBox="0 0 600 600">
  <rect width="600" height="600" fill="#ede9fe"/>
  <!-- Phone -->
  <rect x="180" y="50" width="240" height="500" fill="#1f2937" rx="30"/>
  <rect x="195" y="80" width="210" height="440" fill="#374151" rx="8"/>
  <!-- Screen content -->
  <rect x="210" y="100" width="180" height="60" fill="#4f46e5" rx="8"/>
  <text x="300" y="140" font-family="Arial" font-size="18" fill="white" text-anchor="middle" font-weight="bold">E-COGNITE</text>
  <!-- Tracking card -->
  <rect x="210" y="180" width="180" height="100" fill="#4b5563" rx="8"/>
  <text x="230" y="210" font-family="Arial" font-size="12" fill="#9ca3af">Tracking</text>
  <text x="230" y="235" font-family="Arial" font-size="16" fill="white" font-weight="bold">ECG-ABC123</text>
  <rect x="220" y="250" width="120" height="8" fill="#10b981" rx="4"/>
  <text x="350" y="265" font-family="Arial" font-size="10" fill="#10b981">In Transit</text>
  <!-- Map preview -->
  <rect x="210" y="300" width="180" height="120" fill="#6366f1" rx="8"/>
  <circle cx="260" cy="360" r="8" fill="#fbbf24"/>
  <circle cx="340" cy="340" r="8" fill="#10b981"/>
  <path d="M260 360 Q300 320 340 340" stroke="white" stroke-width="2" fill="none" stroke-dasharray="5,5"/>
  <!-- Bottom nav -->
  <rect x="210" y="440" width="180" height="60" fill="#4b5563" rx="8"/>
  <circle cx="250" cy="470" r="15" fill="#4f46e5"/>
  <circle cx="300" cy="470" r="15" fill="#6b7280"/>
  <circle cx="350" cy="470" r="15" fill="#6b7280"/>
  <!-- Notch -->
  <rect x="270" y="55" width="60" height="20" fill="#1f2937" rx="10"/>
</svg>
