<svg xmlns="http://www.w3.org/2000/svg" viewBox="0 0 600 600">
  <rect width="600" height="600" fill="#f0fdf4"/>
  <!-- Driver figure -->
  <circle cx="300" cy="150" r="70" fill="#fcd34d"/>
  <rect x="230" y="220" width="140" height="180" fill="#4f46e5" rx="12"/>
  <!-- Cap -->
  <ellipse cx="300" cy="100" rx="60" ry="20" fill="#4f46e5"/>
  <rect x="250" y="85" width="100" height="20" fill="#4f46e5"/>
  <!-- Face -->
  <circle cx="275" cy="145" r="8" fill="#1f2937"/>
  <circle cx="325" cy="145" r="8" fill="#1f2937"/>
  <path d="M280 175 Q300 190 320 175" stroke="#1f2937" stroke-width="3" fill="none"/>
  <!-- Clipboard -->
  <rect x="350" y="280" width="80" height="100" fill="#78716c" rx="4"/>
  <rect x="360" y="295" width="60" height="75" fill="white"/>
  <rect x="370" y="305" width="40" height="5" fill="#4b5563"/>
  <rect x="370" y="320" width="40" height="5" fill="#4b5563"/>
  <rect x="370" y="335" width="30" height="5" fill="#4b5563"/>
  <!-- Van in background -->
  <rect x="50" y="420" width="200" height="120" fill="#6366f1" rx="8"/>
  <rect x="20" y="450" width="50" height="90" fill="#818cf8" rx="4"/>
  <circle cx="100" cy="550" r="25" fill="#1f2937"/>
  <circle cx="220" cy="550" r="25" fill="#1f2937"/>
</svg>
