<svg xmlns="http://www.w3.org/2000/svg" viewBox="0 0 1600 900">
  <defs>
    <linearGradient id="road" x1="0%" y1="0%" x2="0%" y2="100%">
      <stop offset="0%" style="stop-color:#1e40af"/>
      <stop offset="100%" style="stop-color:#3b82f6"/>
    </linearGradient>
  </defs>
  <rect width="1600" height="900" fill="url(#road)"/>
  <!-- Road -->
  <rect x="0" y="550" width="1600" height="350" fill="#374151"/>
  <rect x="0" y="700" width="1600" height="10" fill="#fbbf24" stroke-dasharray="50,30"/>
  <!-- Multiple Trucks -->
  <g transform="translate(100,350)">
    <rect x="0" y="0" width="300" height="150" fill="#4f46e5" rx="8"/>
    <rect x="-60" y="30" width="80" height="120" fill="#6366f1" rx="4"/>
    <circle cx="60" cy="170" r="30" fill="#1f2937"/>
    <circle cx="240" cy="170" r="30" fill="#1f2937"/>
    <text x="150" y="90" font-family="Arial" font-size="20" fill="white" text-anchor="middle" font-weight="bold">E-COGNITE</text>
  </g>
  <g transform="translate(500,380)">
    <rect x="0" y="0" width="250" height="120" fill="#4f46e5" rx="8"/>
    <rect x="-50" y="20" width="70" height="100" fill="#6366f1" rx="4"/>
    <circle cx="50" cy="140" r="25" fill="#1f2937"/>
    <circle cx="200" cy="140" r="25" fill="#1f2937"/>
  </g>
  <g transform="translate(850,360)">
    <rect x="0" y="0" width="350" height="180" fill="#4f46e5" rx="8"/>
    <rect x="-70" y="40" width="90" height="140" fill="#6366f1" rx="4"/>
    <circle cx="80" cy="200" r="35" fill="#1f2937"/>
    <circle cx="280" cy="200" r="35" fill="#1f2937"/>
    <text x="175" y="110" font-family="Arial" font-size="24" fill="white" text-anchor="middle" font-weight="bold">E-COGNITE</text>
  </g>
  <!-- Mountains -->
  <polygon points="1200,550 1350,300 1500,550" fill="#1e3a8a"/>
  <polygon points="1350,550 1500,350 1600,550" fill="#1e40af"/>
</svg>
