<svg xmlns="http://www.w3.org/2000/svg" viewBox="0 0 500 400">
  <rect width="500" height="400" fill="#1f2937"/>
  <rect x="20" y="20" width="460" height="360" fill="#374151" rx="12"/>
  <!-- Charts -->
  <rect x="40" y="50" width="200" height="150" fill="#4b5563" rx="8"/>
  <rect x="60" y="160" width="30" height="30" fill="#10b981"/>
  <rect x="100" y="130" width="30" height="60" fill="#10b981"/>
  <rect x="140" y="100" width="30" height="90" fill="#10b981"/>
  <rect x="180" y="80" width="30" height="110" fill="#10b981"/>
  <!-- Pie chart -->
  <circle cx="370" cy="125" r="60" fill="#4f46e5"/>
  <path d="M370 125 L370 65 A60 60 0 0 1 420 155 Z" fill="#10b981"/>
  <path d="M370 125 L420 155 A60 60 0 0 1 330 165 Z" fill="#f59e0b"/>
  <!-- Stats -->
  <rect x="40" y="220" width="130" height="80" fill="#4b5563" rx="8"/>
  <text x="105" y="260" font-family="Arial" font-size="24" fill="#10b981" text-anchor="middle" font-weight="bold">2,459</text>
  <text x="105" y="285" font-family="Arial" font-size="12" fill="#9ca3af" text-anchor="middle">Deliveries</text>
  <rect x="190" y="220" width="130" height="80" fill="#4b5563" rx="8"/>
  <text x="255" y="260" font-family="Arial" font-size="24" fill="#3b82f6" text-anchor="middle" font-weight="bold">98.5%</text>
  <text x="255" y="285" font-family="Arial" font-size="12" fill="#9ca3af" text-anchor="middle">On Time</text>
  <rect x="340" y="220" width="130" height="80" fill="#4b5563" rx="8"/>
  <text x="405" y="260" font-family="Arial" font-size="24" fill="#f59e0b" text-anchor="middle" font-weight="bold">156</text>
  <text x="405" y="285" font-family="Arial" font-size="12" fill="#9ca3af" text-anchor="middle">Active</text>
</svg>
